<svg xmlns="http://www.w3.org/2000/svg" xmlns:xlink="http://www.w3.org/1999/xlink" viewBox="0 0 155 155.46"><defs><style>.cls-1{fill:#0b0f16;stroke:#000;stroke-miterlimit:10;}.cls-2{fill:url(#Degradado_sin_nombre_15);}.cls-3{fill:url(#Degradado_sin_nombre_54);}.cls-4{fill:url(#Degradado_sin_nombre_66);}.cls-5{fill:none;}.cls-6{fill:url(#Degradado_sin_nombre_55);}.cls-7{fill:url(#Degradado_sin_nombre_59);}.cls-8{fill:url(#Degradado_sin_nombre_63);}.cls-9{fill:url(#Degradado_sin_nombre_52);}.cls-10{fill:#e2e2e2;stroke:#dedfe0;stroke-width:3px;}</style><linearGradient id="Degradado_sin_nombre_15" x1="28.71" y1="74.55" x2="118.81" y2="74.55" gradientTransform="translate(-0.99 2.67) rotate(0.29)" gradientUnits="userSpaceOnUse"><stop offset="0" stop-color="#132256"/><stop offset="0" stop-color="#1e3576"/><stop offset="0" stop-color="#2e4fa3"/><stop offset="0" stop-color="#2c6ad0"/><stop offset="0" stop-color="#2a84fb"/><stop offset="0.57" stop-color="#48b2fa"/><stop offset="1" stop-color="#60d8fa"/></linearGradient><linearGradient id="Degradado_sin_nombre_54" x1="41.34" y1="77.81" x2="64.61" y2="77.81" gradientTransform="translate(-0.99 2.67) rotate(0.29)" gradientUnits="userSpaceOnUse"><stop offset="0" stop-color="#132256"/><stop offset="0" stop-color="#1e3576"/><stop offset="0" stop-color="#2e4fa3"/><stop offset="0" stop-color="#3e74c1"/><stop offset="0" stop-color="#3e74c2"/><stop offset="0" stop-color="#326cd9"/><stop offset="0" stop-color="#2a66ea"/><stop offset="0" stop-color="#2562f4"/><stop offset="0" stop-color="#2361f7"/><stop offset="1" stop-color="#2a84fb"/></linearGradient><linearGradient id="Degradado_sin_nombre_66" x1="34.42" y1="131.83" x2="118.75" y2="131.83" gradientTransform="translate(-0.99 2.67) rotate(0.29)" gradientUnits="userSpaceOnUse"><stop offset="0" stop-color="#132256"/><stop offset="0" stop-color="#1e3576"/><stop offset="0" stop-color="#2e4fa3"/><stop offset="0" stop-color="#1f377c"/><stop offset="0" stop-color="#1f387e"/><stop offset="0" stop-color="#203c85"/><stop offset="0" stop-color="#214390"/><stop offset="0" stop-color="#224ea1"/><stop offset="0" stop-color="#245bb7"/><stop offset="0" stop-color="#266bd3"/><stop offset="0" stop-color="#297ff2"/><stop offset="0" stop-color="#2a84fb"/><stop offset="1" stop-color="#2361f7"/></linearGradient><linearGradient id="Degradado_sin_nombre_55" x1="62.02" y1="16.91" x2="170.59" y2="16.91" gradientTransform="translate(-0.99 2.67) rotate(0.29)" gradientUnits="userSpaceOnUse"><stop offset="0" stop-color="#132256"/><stop offset="0" stop-color="#1e3576"/><stop offset="0" stop-color="#2e4fa3"/><stop offset="0" stop-color="#3e74c1"/><stop offset="0" stop-color="#4277c2"/><stop offset="0" stop-color="#4e80c6"/><stop offset="0" stop-color="#638ecd"/><stop offset="0" stop-color="#7fa3d6"/><stop offset="0" stop-color="#a4bee2"/><stop offset="0" stop-color="#d0ddf0"/><stop offset="0" stop-color="#fff"/><stop offset="0" stop-color="#dfedfe"/><stop offset="0" stop-color="#2a84fb"/><stop offset="0.22" stop-color="#2c88fb"/><stop offset="0.44" stop-color="#3493fb"/><stop offset="0.65" stop-color="#40a7fb"/><stop offset="0.86" stop-color="#52c2fa"/><stop offset="1" stop-color="#60d8fa"/></linearGradient><linearGradient id="Degradado_sin_nombre_59" x1="58.41" y1="82.48" x2="176.88" y2="82.48" gradientTransform="translate(-0.99 2.67) rotate(0.29)" gradientUnits="userSpaceOnUse"><stop offset="0" stop-color="#132256"/><stop offset="0" stop-color="#1e3576"/><stop offset="0" stop-color="#2e4fa3"/><stop offset="0" stop-color="#1f377c"/><stop offset="0" stop-color="#1f387f"/><stop offset="0" stop-color="#1f3b89"/><stop offset="0" stop-color="#204199"/><stop offset="0" stop-color="#2149b1"/><stop offset="0" stop-color="#2253cf"/><stop offset="0" stop-color="#2360f3"/><stop offset="0" stop-color="#2361f7"/><stop offset="0.01" stop-color="#2463f7"/><stop offset="0.27" stop-color="#2e80f9"/><stop offset="0.52" stop-color="#3694fa"/><stop offset="0.76" stop-color="#3aa1fb"/><stop offset="1" stop-color="#3ca5fb"/></linearGradient><radialGradient id="Degradado_sin_nombre_63" cx="79.7" cy="85.4" r="24.37" gradientTransform="translate(-0.99 2.67) rotate(0.29)" gradientUnits="userSpaceOnUse"><stop offset="0" stop-color="#132256"/><stop offset="0" stop-color="#162e76"/><stop offset="0" stop-color="#1e4ec6"/><stop offset="0" stop-color="#2361f7"/><stop offset="0" stop-color="#2252ca"/><stop offset="0" stop-color="#1f377c"/><stop offset="0" stop-color="#1f387f"/><stop offset="0" stop-color="#1f3b89"/><stop offset="0" stop-color="#204199"/><stop offset="0" stop-color="#2149b1"/><stop offset="0" stop-color="#2253cf"/><stop offset="0" stop-color="#2360f3"/><stop offset="0" stop-color="#2361f7"/><stop offset="0.32" stop-color="#2774f9"/><stop offset="0.66" stop-color="#2980fb"/><stop offset="1" stop-color="#2a84fb"/></radialGradient><radialGradient id="Degradado_sin_nombre_52" cx="82.74" cy="84.12" r="8.72" gradientTransform="translate(-0.99 2.67) rotate(0.29)" gradientUnits="userSpaceOnUse"><stop offset="0" stop-color="#fff"/><stop offset="0" stop-color="#132256"/><stop offset="0" stop-color="#1e3576"/><stop offset="0" stop-color="#2e4fa3"/><stop offset="0" stop-color="#357bd0"/><stop offset="0" stop-color="#3ca5fb"/><stop offset="0" stop-color="#3a9df2"/><stop offset="0" stop-color="#3382d3"/><stop offset="0" stop-color="#2d6ab7"/><stop offset="0" stop-color="#2857a1"/><stop offset="0" stop-color="#244990"/><stop offset="0" stop-color="#213f85"/><stop offset="0" stop-color="#1f397e"/><stop offset="0" stop-color="#1f377c"/><stop offset="0" stop-color="#223a7d"/><stop offset="0" stop-color="#2c4281"/><stop offset="0" stop-color="#3d5087"/><stop offset="0" stop-color="#55648f"/><stop offset="0" stop-color="#747e9a"/><stop offset="0" stop-color="#999da8"/><stop offset="0" stop-color="#b3b3b1"/><stop offset="0" stop-color="#b0b4b4"/><stop offset="0" stop-color="#a5b9bd"/><stop offset="0" stop-color="#94c1cc"/><stop offset="0" stop-color="#7bcce2"/><stop offset="0" stop-color="#60d8fa"/><stop offset="0.16" stop-color="#5dd3fa"/><stop offset="0.35" stop-color="#55c3f9"/><stop offset="0.57" stop-color="#48a9f9"/><stop offset="0.8" stop-color="#3685f8"/><stop offset="1" stop-color="#2361f7"/></radialGradient></defs><title>Recurso 3</title><g id="Capa_2" data-name="Capa 2"><g id="Capa_1-2" data-name="Capa 1"><rect class="cls-1" x="0.5" y="0.5" width="154" height="154.46"/><path class="cls-2" d="M117.36,94.6c0-3.21,0-6.42-.06-9.62a6,6,0,0,1-.46-2.36c0-16.09.27-32.17.37-48.26l-1.27,0A100.1,100.1,0,0,1,97.5,32.16,99.78,99.78,0,0,1,83,27.86a42.41,42.41,0,0,1-12-7.93A42.22,42.22,0,0,1,61,5.68C13.42,64.83,28.71,149.3,32.69,149.24l28.87-29a52,52,0,0,1-6-6.4c-2.61-2.14-13.5-11.6-15.32-27.56-2.62-22.89,15.88-37.74,17-38.6a58.27,58.27,0,0,1,35.59,9.84C112.52,71,116.46,92.16,117.12,96.1,117.17,95.72,117.25,95.21,117.36,94.6Z"/><path class="cls-3" d="M46.41,86.07c-.94,12,4.14,21.51,9.12,27.78-2.61-2.14-13.5-11.6-15.32-27.56-2.62-22.89,15.88-37.74,17-38.6l6.15,9C61.18,58.25,47.81,68.4,46.41,86.07Z"/><path class="cls-4" d="M116.89,133.19A208.92,208.92,0,0,1,81,130.28a45.08,45.08,0,0,1-17.08-8c-.43-.33-1.28-1-2.39-2l-28.87,29L117,148.15C117,143.16,117,138.17,116.89,133.19Z"/><path class="cls-5" d="M59.76,116.87a6.75,6.75,0,0,1-.7.94c-.11.51-.22,1-.34,1.55a6.5,6.5,0,0,1,4.25.22c.59-.87,1.19-1.72,1.81-2.57a31,31,0,0,1-1.21-4.2,4.1,4.1,0,0,1-1.35-.79A45,45,0,0,1,59.76,116.87Z"/><path class="cls-5" d="M116.81,123.09c0,.16-.07.34-.1.5a112.72,112.72,0,0,0-14.93-41.2A111.76,111.76,0,0,0,82.54,58.7a40.91,40.91,0,0,0-25.34-11l6.15,9c-2.17,1.6-15.54,11.75-16.94,29.42-.94,12,4.14,21.51,9.12,27.78a52,52,0,0,0,6,6.4c1.11,1,2,1.65,2.39,2a45.08,45.08,0,0,0,17.08,8,208.92,208.92,0,0,0,35.86,2.91C116.84,129.82,116.82,126.46,116.81,123.09ZM90.05,87.25a8.72,8.72,0,1,1-8.67-8.76A8.72,8.72,0,0,1,90.05,87.25ZM72.78,112.59a26.17,26.17,0,0,1-17.4-20.45c-1.84-11.9,5.34-24.2,17.65-29.2l5.36,5C68,70.24,61,79.74,61.82,89.67a20.1,20.1,0,0,0,37.11,8.76l2.47,6.45A26.94,26.94,0,0,1,72.78,112.59Z"/><path class="cls-6" d="M117.25,25.93c-1.8,0-3.63,0-5.51,0A85,85,0,0,1,61,5.68,42.22,42.22,0,0,0,71,19.93a42.41,42.41,0,0,0,12,7.93,99.78,99.78,0,0,0,14.5,4.3,100.1,100.1,0,0,0,18.44,2.23l1.27,0C117.23,31.55,117.25,28.74,117.25,25.93Z"/><path class="cls-7" d="M116.81,118.44c.08-7.93.45-15.89.55-23.84-.11.61-.19,1.12-.24,1.5-.66-3.94-4.6-25.09-24.33-38.57A58.27,58.27,0,0,0,57.2,47.69a40.91,40.91,0,0,1,25.34,11,111.76,111.76,0,0,1,19.24,23.69,112.72,112.72,0,0,1,14.93,41.2c0-.16.07-.34.1-.5C116.81,121.54,116.8,120,116.81,118.44Z"/><path class="cls-8" d="M101.4,104.88a26.94,26.94,0,0,1-28.62,7.71,26.17,26.17,0,0,1-17.4-20.45c-1.84-11.9,5.34-24.2,17.65-29.2l5.36,5C68,70.24,61,79.74,61.82,89.67a20.1,20.1,0,0,0,37.11,8.76Z"/><path class="cls-9" d="M90.05,87.25a8.72,8.72,0,1,1-8.67-8.76A8.72,8.72,0,0,1,90.05,87.25Z"/><line class="cls-10" x1="117.5" y1="147.96" x2="117.51" y2="5.96"/></g></g></svg>