<svg xmlns="http://www.w3.org/2000/svg" xmlns:xlink="http://www.w3.org/1999/xlink" viewBox="0 0 400.22 196.12"><defs><style>.cls-1{fill:url(#Degradado_sin_nombre_15);}.cls-2{fill:url(#Degradado_sin_nombre_54);}.cls-3{fill:url(#Degradado_sin_nombre_66);}.cls-4{fill:none;}.cls-5{fill:url(#Degradado_sin_nombre_55);}.cls-6{fill:url(#Degradado_sin_nombre_59);}.cls-7{fill:url(#Degradado_sin_nombre_63);}.cls-8{fill:url(#Degradado_sin_nombre_52);}.cls-9{fill:#e2e2e2;}.cls-11,.cls-9{stroke:#dedfe0;stroke-width:3px;}.cls-10{fill:#fff;}.cls-11{fill:#dbdcdd;}</style><linearGradient id="Degradado_sin_nombre_15" x1="1.03" y1="92.19" x2="95.52" y2="92.19" gradientTransform="translate(-0.39 1.05) rotate(0.29)" gradientUnits="userSpaceOnUse"><stop offset="0" stop-color="#132256"/><stop offset="0" stop-color="#1e3576"/><stop offset="0" stop-color="#2e4fa3"/><stop offset="0" stop-color="#2c6ad0"/><stop offset="0" stop-color="#2a84fb"/><stop offset="0.57" stop-color="#48b2fa"/><stop offset="1" stop-color="#60d8fa"/></linearGradient><linearGradient id="Degradado_sin_nombre_54" x1="14.27" y1="95.61" x2="38.68" y2="95.61" gradientTransform="translate(-0.39 1.05) rotate(0.29)" gradientUnits="userSpaceOnUse"><stop offset="0" stop-color="#132256"/><stop offset="0" stop-color="#1e3576"/><stop offset="0" stop-color="#2e4fa3"/><stop offset="0" stop-color="#3e74c1"/><stop offset="0" stop-color="#3e74c2"/><stop offset="0" stop-color="#326cd9"/><stop offset="0" stop-color="#2a66ea"/><stop offset="0" stop-color="#2562f4"/><stop offset="0" stop-color="#2361f7"/><stop offset="1" stop-color="#2a84fb"/></linearGradient><linearGradient id="Degradado_sin_nombre_66" x1="7.01" y1="152.27" x2="95.46" y2="152.27" gradientTransform="translate(-0.39 1.05) rotate(0.29)" gradientUnits="userSpaceOnUse"><stop offset="0" stop-color="#132256"/><stop offset="0" stop-color="#1e3576"/><stop offset="0" stop-color="#2e4fa3"/><stop offset="0" stop-color="#1f377c"/><stop offset="0" stop-color="#1f387e"/><stop offset="0" stop-color="#203c85"/><stop offset="0" stop-color="#214390"/><stop offset="0" stop-color="#224ea1"/><stop offset="0" stop-color="#245bb7"/><stop offset="0" stop-color="#266bd3"/><stop offset="0" stop-color="#297ff2"/><stop offset="0" stop-color="#2a84fb"/><stop offset="1" stop-color="#2361f7"/></linearGradient><linearGradient id="Degradado_sin_nombre_55" x1="35.96" y1="31.74" x2="149.83" y2="31.74" gradientTransform="translate(-0.39 1.05) rotate(0.29)" gradientUnits="userSpaceOnUse"><stop offset="0" stop-color="#132256"/><stop offset="0" stop-color="#1e3576"/><stop offset="0" stop-color="#2e4fa3"/><stop offset="0" stop-color="#3e74c1"/><stop offset="0" stop-color="#4277c2"/><stop offset="0" stop-color="#4e80c6"/><stop offset="0" stop-color="#638ecd"/><stop offset="0" stop-color="#7fa3d6"/><stop offset="0" stop-color="#a4bee2"/><stop offset="0" stop-color="#d0ddf0"/><stop offset="0" stop-color="#fff"/><stop offset="0" stop-color="#dfedfe"/><stop offset="0" stop-color="#2a84fb"/><stop offset="0.22" stop-color="#2c88fb"/><stop offset="0.44" stop-color="#3493fb"/><stop offset="0.65" stop-color="#40a7fb"/><stop offset="0.86" stop-color="#52c2fa"/><stop offset="1" stop-color="#60d8fa"/></linearGradient><linearGradient id="Degradado_sin_nombre_59" x1="32.18" y1="100.51" x2="156.42" y2="100.51" gradientTransform="translate(-0.39 1.05) rotate(0.29)" gradientUnits="userSpaceOnUse"><stop offset="0" stop-color="#132256"/><stop offset="0" stop-color="#1e3576"/><stop offset="0" stop-color="#2e4fa3"/><stop offset="0" stop-color="#1f377c"/><stop offset="0" stop-color="#1f387f"/><stop offset="0" stop-color="#1f3b89"/><stop offset="0" stop-color="#204199"/><stop offset="0" stop-color="#2149b1"/><stop offset="0" stop-color="#2253cf"/><stop offset="0" stop-color="#2360f3"/><stop offset="0" stop-color="#2361f7"/><stop offset="0.01" stop-color="#2463f7"/><stop offset="0.27" stop-color="#2e80f9"/><stop offset="0.52" stop-color="#3694fa"/><stop offset="0.76" stop-color="#3aa1fb"/><stop offset="1" stop-color="#3ca5fb"/></linearGradient><radialGradient id="Degradado_sin_nombre_63" cx="54.51" cy="103.57" r="25.56" gradientTransform="translate(-0.39 1.05) rotate(0.29)" gradientUnits="userSpaceOnUse"><stop offset="0" stop-color="#132256"/><stop offset="0" stop-color="#162e76"/><stop offset="0" stop-color="#1e4ec6"/><stop offset="0" stop-color="#2361f7"/><stop offset="0" stop-color="#2252ca"/><stop offset="0" stop-color="#1f377c"/><stop offset="0" stop-color="#1f387f"/><stop offset="0" stop-color="#1f3b89"/><stop offset="0" stop-color="#204199"/><stop offset="0" stop-color="#2149b1"/><stop offset="0" stop-color="#2253cf"/><stop offset="0" stop-color="#2360f3"/><stop offset="0" stop-color="#2361f7"/><stop offset="0.32" stop-color="#2774f9"/><stop offset="0.66" stop-color="#2980fb"/><stop offset="1" stop-color="#2a84fb"/></radialGradient><radialGradient id="Degradado_sin_nombre_52" cx="57.69" cy="102.23" r="9.14" gradientTransform="translate(-0.39 1.05) rotate(0.29)" gradientUnits="userSpaceOnUse"><stop offset="0" stop-color="#fff"/><stop offset="0" stop-color="#132256"/><stop offset="0" stop-color="#1e3576"/><stop offset="0" stop-color="#2e4fa3"/><stop offset="0" stop-color="#357bd0"/><stop offset="0" stop-color="#3ca5fb"/><stop offset="0" stop-color="#3a9df2"/><stop offset="0" stop-color="#3382d3"/><stop offset="0" stop-color="#2d6ab7"/><stop offset="0" stop-color="#2857a1"/><stop offset="0" stop-color="#244990"/><stop offset="0" stop-color="#213f85"/><stop offset="0" stop-color="#1f397e"/><stop offset="0" stop-color="#1f377c"/><stop offset="0" stop-color="#223a7d"/><stop offset="0" stop-color="#2c4281"/><stop offset="0" stop-color="#3d5087"/><stop offset="0" stop-color="#55648f"/><stop offset="0" stop-color="#747e9a"/><stop offset="0" stop-color="#999da8"/><stop offset="0" stop-color="#b3b3b1"/><stop offset="0" stop-color="#b0b4b4"/><stop offset="0" stop-color="#a5b9bd"/><stop offset="0" stop-color="#94c1cc"/><stop offset="0" stop-color="#7bcce2"/><stop offset="0" stop-color="#60d8fa"/><stop offset="0.16" stop-color="#5dd3fa"/><stop offset="0.35" stop-color="#55c3f9"/><stop offset="0.57" stop-color="#48a9f9"/><stop offset="0.8" stop-color="#3685f8"/><stop offset="1" stop-color="#2361f7"/></radialGradient></defs><title>Recurso 2</title><g id="Capa_2" data-name="Capa 2"><g id="Capa_1-2" data-name="Capa 1"><path class="cls-1" d="M94.57,111.32q.08-5.05-.06-10.09A6.36,6.36,0,0,1,94,98.76c0-16.87.27-33.75.38-50.62l-1.33,0a104.55,104.55,0,0,1-19.34-2.33,106,106,0,0,1-15.21-4.52A44,44,0,0,1,45.9,33,44.34,44.34,0,0,1,35.48,18.06C-14.43,80.1,1.6,168.68,5.78,168.63l30.28-30.41a54.22,54.22,0,0,1-6.33-6.71c-2.73-2.25-14.15-12.17-16.06-28.9C10.92,78.6,30.32,63,31.48,62.12A61.14,61.14,0,0,1,68.81,72.44c20.7,14.14,24.82,36.33,25.51,40.46C94.38,112.5,94.46,112,94.57,111.32Z"/><path class="cls-2" d="M20.17,102.37c-1,12.61,4.34,22.56,9.56,29.14-2.73-2.25-14.15-12.17-16.06-28.9C10.92,78.6,30.32,63,31.48,62.12l6.46,9.4C35.65,73.2,21.63,83.84,20.17,102.37Z"/><path class="cls-3" d="M94.08,151.79a217.79,217.79,0,0,1-37.6-3,47.1,47.1,0,0,1-17.91-8.44c-.46-.35-1.35-1.05-2.51-2.08L5.78,168.63l88.46-1.14C94.22,162.25,94.15,157,94.08,151.79Z"/><path class="cls-4" d="M34.17,134.68a6.62,6.62,0,0,1-.74,1c-.11.54-.23,1.09-.35,1.63a6.81,6.81,0,0,1,4.46.22c.62-.9,1.25-1.8,1.89-2.68a34.58,34.58,0,0,1-1.27-4.41,4.48,4.48,0,0,1-1.41-.83A47.65,47.65,0,0,1,34.17,134.68Z"/><path class="cls-4" d="M94,141.2c0,.17-.08.35-.11.53A118.07,118.07,0,0,0,78.24,98.51,116.86,116.86,0,0,0,58.06,73.67,42.82,42.82,0,0,0,31.48,62.12l6.46,9.4c-2.29,1.68-16.31,12.32-17.77,30.85-1,12.61,4.34,22.56,9.56,29.14a54.22,54.22,0,0,0,6.33,6.71c1.16,1,2,1.73,2.51,2.08a47.1,47.1,0,0,0,17.91,8.44,217.79,217.79,0,0,0,37.6,3C94,148.26,94,144.73,94,141.2ZM65.93,103.61a9.14,9.14,0,1,1-9.09-9.19A9.13,9.13,0,0,1,65.93,103.61Zm-18.1,26.58a27.48,27.48,0,0,1-18.26-21.45c-1.93-12.48,5.61-25.38,18.52-30.62l5.62,5.27c-10.92,2.38-18.28,12.34-17.38,22.76a21.08,21.08,0,0,0,38.91,9.19l2.6,6.76A28.24,28.24,0,0,1,47.83,130.19Z"/><path class="cls-5" d="M94.46,39.31c-1.89,0-3.8,0-5.77-.05a89.12,89.12,0,0,1-53.21-21.2A44.34,44.34,0,0,0,45.9,33a44,44,0,0,0,12.64,8.31,106,106,0,0,0,15.21,4.52,104.55,104.55,0,0,0,19.34,2.33l1.33,0C94.44,45.2,94.46,42.25,94.46,39.31Z"/><path class="cls-6" d="M94,136.32c.08-8.31.47-16.66.57-25-.11.65-.19,1.18-.25,1.58-.69-4.13-4.81-26.32-25.51-40.46A61.14,61.14,0,0,0,31.48,62.12,42.82,42.82,0,0,1,58.06,73.67,116.86,116.86,0,0,1,78.24,98.51,118.07,118.07,0,0,1,93.9,141.73c0-.18.07-.36.11-.53C94,139.57,94,138,94,136.32Z"/><path class="cls-7" d="M77.84,122.1a28.24,28.24,0,0,1-30,8.09,27.48,27.48,0,0,1-18.26-21.45c-1.93-12.48,5.61-25.38,18.52-30.63l5.62,5.28c-10.92,2.38-18.28,12.34-17.38,22.76a21.08,21.08,0,0,0,38.91,9.19Z"/><path class="cls-8" d="M65.93,103.61a9.14,9.14,0,1,1-9.09-9.19A9.13,9.13,0,0,1,65.93,103.61Z"/><line class="cls-9" x1="95.15" y1="196.12" x2="95.15"/><path class="cls-10" d="M121,120.94V44.82h24.59q12.75,0,19.92,5.12t7.17,15.37a15.3,15.3,0,0,1-3.11,9.47,17.86,17.86,0,0,1-8.66,6.06q7.74,1.09,11.93,6.3A19,19,0,0,1,177,99.4q0,10.5-7.05,16t-19.43,5.52Zm12.39-43.13h14.09q6-.16,9.37-3.32t3.39-9q0-6.27-3.73-9.41T145.54,53h-12.2Zm0,7.63v27.45h17.15q6.7,0,10.37-3.48t3.66-10q0-6.27-3.57-10t-10-4H133.34Z"/><path class="cls-10" d="M248.05,44.82V95.16q0,12.66-8.3,19.77T218.21,122q-13,0-21.14-7.13t-8.15-19.74V44.82h12.39V95.16q0,8.84,4.67,13.83a16,16,0,0,0,12.23,5q7.81,0,12.6-5t4.79-13.86V44.82ZM223.21,23.49h14.22l.18.26L222.85,37.4H212.48Z"/><path class="cls-10" d="M323.46,120.94H311.08V87.37H276.3v33.57H263.91V44.82H276.3V79.27h34.78V44.82h12.38Z"/><path class="cls-10" d="M400.22,93.39q0,13.53-8.54,21.09T368.79,122q-14.15,0-22.51-7.55t-8.36-21.09V72.48q0-13.5,8.36-21.12t22.45-7.64q14.34,0,22.92,7.61t8.57,21.15ZM387.89,72.32q0-9.93-5-15.08t-14.19-5.15q-8.91,0-13.69,5.15t-4.79,15.08V93.39q0,10,4.82,15.21t13.72,5.18q9.22,0,14.16-5.15t4.94-15.24Z"/><path class="cls-10" d="M187.85,157.35a2.21,2.21,0,0,0-1-1.88,10.8,10.8,0,0,0-3.88-1.27,18.13,18.13,0,0,1-6.07-2,4,4,0,0,1-2.12-3.51,4.83,4.83,0,0,1,2.33-4,11.68,11.68,0,0,1,12.2.1,4.83,4.83,0,0,1,2.25,4.14l0,.1H187.6a2.88,2.88,0,0,0-1.27-2.25,5,5,0,0,0-3.22-1,5.21,5.21,0,0,0-3.22.83,2.47,2.47,0,0,0-1.06,2,2,2,0,0,0,.92,1.76,11.34,11.34,0,0,0,3.79,1.13,17.69,17.69,0,0,1,6.25,2.11,4.09,4.09,0,0,1,2.14,3.57,4.83,4.83,0,0,1-2.42,4.16,11.07,11.07,0,0,1-6.3,1.62,10.88,10.88,0,0,1-6.74-1.87,5,5,0,0,1-2.34-4.34l0-.11h3.89a3.13,3.13,0,0,0,1.61,2.72,7,7,0,0,0,3.54.87,6.35,6.35,0,0,0,3.41-.79A2.34,2.34,0,0,0,187.85,157.35Z"/><path class="cls-10" d="M196.05,152.74a9.61,9.61,0,0,1,2.69-7A9.71,9.71,0,0,1,206,143a9.85,9.85,0,0,1,7.36,2.75,9.59,9.59,0,0,1,2.7,7v.39a9.63,9.63,0,0,1-2.69,7,11.19,11.19,0,0,1-14.66,0,9.59,9.59,0,0,1-2.7-7Zm4.07.39a8.13,8.13,0,0,0,1.5,5,6,6,0,0,0,8.89,0,8.07,8.07,0,0,0,1.51-5v-.39a8,8,0,0,0-1.52-5,5.26,5.26,0,0,0-4.46-2,5.2,5.2,0,0,0-4.42,2,8.15,8.15,0,0,0-1.5,5Z"/><path class="cls-10" d="M225.5,162.51h-4.08V134.85h4.08Z"/><path class="cls-10" d="M246,159.68a7.19,7.19,0,0,1-2.71,2.37,8.37,8.37,0,0,1-3.83.84,7.82,7.82,0,0,1-5.72-2q-2-2-2-6.24V143.33h4.07v11.35c0,2,.35,3.45,1.06,4.22a4.28,4.28,0,0,0,3.29,1.15,7.52,7.52,0,0,0,3.59-.76,5,5,0,0,0,2.14-2.13V143.33h4.08v19.18h-3.66Z"/><path class="cls-10" d="M261.53,138.7v4.63h4.24v2.58h-4.24v11.66a2.37,2.37,0,0,0,.65,1.89,2.58,2.58,0,0,0,1.73.55,3.91,3.91,0,0,0,.79-.08,5.53,5.53,0,0,0,.72-.17l.56,2.4a3.79,3.79,0,0,1-1.35.52,7.62,7.62,0,0,1-1.76.21,5.78,5.78,0,0,1-3.95-1.29,5.09,5.09,0,0,1-1.47-4V145.91h-3.56v-2.58h3.56V138.7Z"/><path class="cls-10" d="M274.55,138.41h-4.08v-3.56h4.08Zm0,24.1h-4.08V143.33h4.08Z"/><path class="cls-10" d="M279.87,152.74a9.61,9.61,0,0,1,2.69-7,9.72,9.72,0,0,1,7.3-2.76,9.85,9.85,0,0,1,7.36,2.75,9.59,9.59,0,0,1,2.7,7v.39a9.59,9.59,0,0,1-2.69,7,11.19,11.19,0,0,1-14.66,0,9.59,9.59,0,0,1-2.7-7Zm4.08.39a8.13,8.13,0,0,0,1.5,5,5.95,5.95,0,0,0,8.88,0,8.08,8.08,0,0,0,1.52-5v-.39a8,8,0,0,0-1.53-5,5.26,5.26,0,0,0-4.46-2,5.18,5.18,0,0,0-4.41,2,8.15,8.15,0,0,0-1.5,5Z"/><path class="cls-10" d="M308.55,143.33l.29,2.85a7.76,7.76,0,0,1,2.81-2.37,8.47,8.47,0,0,1,3.84-.84,8,8,0,0,1,5.61,1.82q2,1.82,2,5.61v12.11H319v-12a4.69,4.69,0,0,0-1.17-3.6,5.16,5.16,0,0,0-3.57-1.06,7,7,0,0,0-3.2.65,5.09,5.09,0,0,0-2.08,1.81v14.24h-4.08V143.33Z"/><path class="cls-10" d="M342,157.35a2.21,2.21,0,0,0-1-1.88,10.81,10.81,0,0,0-3.87-1.27,18.11,18.11,0,0,1-6.08-2,4,4,0,0,1-2.12-3.51,4.86,4.86,0,0,1,2.33-4,11.68,11.68,0,0,1,12.2.1,4.83,4.83,0,0,1,2.25,4.14l0,.1h-3.89a2.88,2.88,0,0,0-1.27-2.25,5,5,0,0,0-3.22-1,5.21,5.21,0,0,0-3.22.83,2.47,2.47,0,0,0-1.06,2,2,2,0,0,0,.92,1.76,11.34,11.34,0,0,0,3.79,1.13,17.82,17.82,0,0,1,6.26,2.11,4.1,4.1,0,0,1,2.13,3.57,4.84,4.84,0,0,1-2.41,4.16,11.12,11.12,0,0,1-6.31,1.62,10.88,10.88,0,0,1-6.74-1.87,5,5,0,0,1-2.34-4.34l0-.11h3.89a3.13,3.13,0,0,0,1.61,2.72,7,7,0,0,0,3.54.87,6.35,6.35,0,0,0,3.41-.79A2.34,2.34,0,0,0,342,157.35Z"/><line class="cls-11" x1="353.82" y1="152.16" x2="396.12" y2="152.27"/><line class="cls-11" x1="117.71" y1="153.34" x2="160.01" y2="153.45"/></g></g></svg>