<svg xmlns="http://www.w3.org/2000/svg" xmlns:xlink="http://www.w3.org/1999/xlink" viewBox="0 0 126 126"><defs><style>.cls-1{fill:#020730;stroke:#000;stroke-miterlimit:10;}.cls-2{fill:url(#Degradado_sin_nombre_15);}.cls-3{fill:url(#Degradado_sin_nombre_54);}.cls-4{fill:url(#Degradado_sin_nombre_66);}.cls-5{fill:none;}.cls-6{fill:url(#Degradado_sin_nombre_55);}.cls-7{fill:url(#Degradado_sin_nombre_59);}.cls-8{fill:url(#Degradado_sin_nombre_63);}.cls-9{fill:url(#Degradado_sin_nombre_52);}.cls-10{fill:#e2e2e2;stroke:#dedfe0;stroke-width:3px;}</style><linearGradient id="Degradado_sin_nombre_15" x1="35.84" y1="61.42" x2="82.58" y2="61.42" gradientTransform="translate(0.87 -1.23) rotate(0.29)" gradientUnits="userSpaceOnUse"><stop offset="0" stop-color="#132256"/><stop offset="0" stop-color="#1e3576"/><stop offset="0" stop-color="#2e4fa3"/><stop offset="0" stop-color="#2c6ad0"/><stop offset="0" stop-color="#2a84fb"/><stop offset="0.57" stop-color="#48b2fa"/><stop offset="1" stop-color="#60d8fa"/></linearGradient><linearGradient id="Degradado_sin_nombre_54" x1="42.39" y1="63.11" x2="54.47" y2="63.11" gradientTransform="translate(0.87 -1.23) rotate(0.29)" gradientUnits="userSpaceOnUse"><stop offset="0" stop-color="#132256"/><stop offset="0" stop-color="#1e3576"/><stop offset="0" stop-color="#2e4fa3"/><stop offset="0" stop-color="#3e74c1"/><stop offset="0" stop-color="#3e74c2"/><stop offset="0" stop-color="#326cd9"/><stop offset="0" stop-color="#2a66ea"/><stop offset="0" stop-color="#2562f4"/><stop offset="0" stop-color="#2361f7"/><stop offset="1" stop-color="#2a84fb"/></linearGradient><linearGradient id="Degradado_sin_nombre_66" x1="38.8" y1="91.13" x2="82.55" y2="91.13" gradientTransform="translate(0.87 -1.23) rotate(0.29)" gradientUnits="userSpaceOnUse"><stop offset="0" stop-color="#132256"/><stop offset="0" stop-color="#1e3576"/><stop offset="0" stop-color="#2e4fa3"/><stop offset="0" stop-color="#1f377c"/><stop offset="0" stop-color="#1f387e"/><stop offset="0" stop-color="#203c85"/><stop offset="0" stop-color="#214390"/><stop offset="0" stop-color="#224ea1"/><stop offset="0" stop-color="#245bb7"/><stop offset="0" stop-color="#266bd3"/><stop offset="0" stop-color="#297ff2"/><stop offset="0" stop-color="#2a84fb"/><stop offset="1" stop-color="#2361f7"/></linearGradient><linearGradient id="Degradado_sin_nombre_55" x1="53.12" y1="31.52" x2="109.44" y2="31.52" gradientTransform="translate(0.87 -1.23) rotate(0.29)" gradientUnits="userSpaceOnUse"><stop offset="0" stop-color="#132256"/><stop offset="0" stop-color="#1e3576"/><stop offset="0" stop-color="#2e4fa3"/><stop offset="0" stop-color="#3e74c1"/><stop offset="0" stop-color="#4277c2"/><stop offset="0" stop-color="#4e80c6"/><stop offset="0" stop-color="#638ecd"/><stop offset="0" stop-color="#7fa3d6"/><stop offset="0" stop-color="#a4bee2"/><stop offset="0" stop-color="#d0ddf0"/><stop offset="0" stop-color="#fff"/><stop offset="0" stop-color="#dfedfe"/><stop offset="0" stop-color="#2a84fb"/><stop offset="0.22" stop-color="#2c88fb"/><stop offset="0.44" stop-color="#3493fb"/><stop offset="0.65" stop-color="#40a7fb"/><stop offset="0.86" stop-color="#52c2fa"/><stop offset="1" stop-color="#60d8fa"/></linearGradient><linearGradient id="Degradado_sin_nombre_59" x1="51.25" y1="65.53" x2="112.7" y2="65.53" gradientTransform="translate(0.87 -1.23) rotate(0.29)" gradientUnits="userSpaceOnUse"><stop offset="0" stop-color="#132256"/><stop offset="0" stop-color="#1e3576"/><stop offset="0" stop-color="#2e4fa3"/><stop offset="0" stop-color="#1f377c"/><stop offset="0" stop-color="#1f387f"/><stop offset="0" stop-color="#1f3b89"/><stop offset="0" stop-color="#204199"/><stop offset="0" stop-color="#2149b1"/><stop offset="0" stop-color="#2253cf"/><stop offset="0" stop-color="#2360f3"/><stop offset="0" stop-color="#2361f7"/><stop offset="0.01" stop-color="#2463f7"/><stop offset="0.27" stop-color="#2e80f9"/><stop offset="0.52" stop-color="#3694fa"/><stop offset="0.76" stop-color="#3aa1fb"/><stop offset="1" stop-color="#3ca5fb"/></linearGradient><radialGradient id="Degradado_sin_nombre_63" cx="62.29" cy="67.05" r="12.64" gradientTransform="translate(0.87 -1.23) rotate(0.29)" gradientUnits="userSpaceOnUse"><stop offset="0" stop-color="#132256"/><stop offset="0" stop-color="#162e76"/><stop offset="0" stop-color="#1e4ec6"/><stop offset="0" stop-color="#2361f7"/><stop offset="0" stop-color="#2252ca"/><stop offset="0" stop-color="#1f377c"/><stop offset="0" stop-color="#1f387f"/><stop offset="0" stop-color="#1f3b89"/><stop offset="0" stop-color="#204199"/><stop offset="0" stop-color="#2149b1"/><stop offset="0" stop-color="#2253cf"/><stop offset="0" stop-color="#2360f3"/><stop offset="0" stop-color="#2361f7"/><stop offset="0.32" stop-color="#2774f9"/><stop offset="0.66" stop-color="#2980fb"/><stop offset="1" stop-color="#2a84fb"/></radialGradient><radialGradient id="Degradado_sin_nombre_52" cx="63.87" cy="66.38" r="4.52" gradientTransform="translate(0.87 -1.23) rotate(0.29)" gradientUnits="userSpaceOnUse"><stop offset="0" stop-color="#fff"/><stop offset="0" stop-color="#132256"/><stop offset="0" stop-color="#1e3576"/><stop offset="0" stop-color="#2e4fa3"/><stop offset="0" stop-color="#357bd0"/><stop offset="0" stop-color="#3ca5fb"/><stop offset="0" stop-color="#3a9df2"/><stop offset="0" stop-color="#3382d3"/><stop offset="0" stop-color="#2d6ab7"/><stop offset="0" stop-color="#2857a1"/><stop offset="0" stop-color="#244990"/><stop offset="0" stop-color="#213f85"/><stop offset="0" stop-color="#1f397e"/><stop offset="0" stop-color="#1f377c"/><stop offset="0" stop-color="#223a7d"/><stop offset="0" stop-color="#2c4281"/><stop offset="0" stop-color="#3d5087"/><stop offset="0" stop-color="#55648f"/><stop offset="0" stop-color="#747e9a"/><stop offset="0" stop-color="#999da8"/><stop offset="0" stop-color="#b3b3b1"/><stop offset="0" stop-color="#b0b4b4"/><stop offset="0" stop-color="#a5b9bd"/><stop offset="0" stop-color="#94c1cc"/><stop offset="0" stop-color="#7bcce2"/><stop offset="0" stop-color="#60d8fa"/><stop offset="0.16" stop-color="#5dd3fa"/><stop offset="0.35" stop-color="#55c3f9"/><stop offset="0.57" stop-color="#48a9f9"/><stop offset="0.8" stop-color="#3685f8"/><stop offset="1" stop-color="#2361f7"/></radialGradient></defs><title>Recurso 2</title><g id="Capa_2" data-name="Capa 2"><g id="Capa_1-2" data-name="Capa 1"><rect class="cls-1" x="0.5" y="0.5" width="125" height="125"/><path class="cls-2" d="M83.09,69.31c0-1.67,0-3.33,0-5a3.12,3.12,0,0,1-.24-1.22c0-8.35.14-16.69.19-25l-.66,0a52.41,52.41,0,0,1-9.56-1.16,52.5,52.5,0,0,1-7.52-2.23A21.84,21.84,0,0,1,53.86,23.18C29.17,53.87,37.1,97.68,39.17,97.65l15-15A26,26,0,0,1,51,79.3a22.34,22.34,0,0,1-8-14.3c-1.36-11.88,8.24-19.58,8.81-20a30.29,30.29,0,0,1,18.47,5.11c10.23,7,12.27,18,12.62,20Q83,69.79,83.09,69.31Z"/><path class="cls-3" d="M46.29,64.88A20.48,20.48,0,0,0,51,79.3a22.34,22.34,0,0,1-8-14.3c-1.36-11.88,8.24-19.58,8.81-20l3.2,4.65C54,50.45,47,55.72,46.29,64.88Z"/><path class="cls-4" d="M82.85,89.32a107.22,107.22,0,0,1-18.6-1.5,23.38,23.38,0,0,1-8.86-4.18c-.23-.17-.67-.52-1.24-1l-15,15,43.75-.56C82.91,94.5,82.88,91.91,82.85,89.32Z"/><path class="cls-5" d="M53.21,80.86a3,3,0,0,1-.36.49l-.18.8a3.47,3.47,0,0,1,2.21.11c.3-.44.62-.89.93-1.32a17.33,17.33,0,0,1-.62-2.18,2.34,2.34,0,0,1-.7-.41A23.69,23.69,0,0,1,53.21,80.86Z"/><path class="cls-5" d="M82.81,84.09l-.06.26A58.26,58.26,0,0,0,75,63,57.75,57.75,0,0,0,65,50.69a21.16,21.16,0,0,0-6.55-4.2A21.56,21.56,0,0,0,51.88,45l3.2,4.65c-1.13.83-8.07,6.1-8.79,15.26A20.48,20.48,0,0,0,51,79.3a26,26,0,0,0,3.13,3.31c.57.51,1,.86,1.24,1a23.38,23.38,0,0,0,8.86,4.18,107.22,107.22,0,0,0,18.6,1.5C82.82,87.58,82.81,85.83,82.81,84.09ZM68.92,65.5A4.52,4.52,0,1,1,64.42,61,4.52,4.52,0,0,1,68.92,65.5ZM60,78.64a13.58,13.58,0,0,1-9-10.61C50,61.86,53.71,55.48,60.1,52.89l2.78,2.6a10.81,10.81,0,0,0-8.6,11.26A10.43,10.43,0,0,0,73.53,71.3l1.28,3.34A14,14,0,0,1,60,78.64Z"/><path class="cls-6" d="M83,33.69c-.93,0-1.88,0-2.85,0A44.08,44.08,0,0,1,53.86,23.18,21.84,21.84,0,0,0,65.27,34.69a52.5,52.5,0,0,0,7.52,2.23,52.41,52.41,0,0,0,9.56,1.16l.66,0C83,36.6,83,35.15,83,33.69Z"/><path class="cls-7" d="M82.81,81.67c0-4.11.23-8.24.28-12.36q-.09.48-.12.78c-.35-2-2.39-13-12.62-20A30.29,30.29,0,0,0,51.88,45a21.56,21.56,0,0,1,6.6,1.52A21.16,21.16,0,0,1,65,50.69,57.75,57.75,0,0,1,75,63a58.26,58.26,0,0,1,7.74,21.38l.06-.26C82.81,83.28,82.8,82.48,82.81,81.67Z"/><path class="cls-8" d="M74.81,74.64a14,14,0,0,1-14.84,4,13.58,13.58,0,0,1-9-10.61C50,61.86,53.71,55.48,60.1,52.89l2.78,2.6a10.81,10.81,0,0,0-8.6,11.26A10.43,10.43,0,0,0,73.53,71.3Z"/><path class="cls-9" d="M68.92,65.5A4.52,4.52,0,1,1,64.42,61,4.52,4.52,0,0,1,68.92,65.5Z"/><line class="cls-10" x1="83.38" y1="111.25" x2="83.38" y2="14.25"/></g></g></svg>