<svg xmlns="http://www.w3.org/2000/svg" viewBox="0 0 1091 850.17"><defs><style>.cls-1{fill:#fff;}</style></defs><title>Recurso 6</title><g id="Capa_2" data-name="Capa 2"><g id="Capa_1-2" data-name="Capa 1"><path class="cls-1" d="M590.75,171.1C590.5,152,574,153.17,574,153.17l-414,1L310,.17H625s54-6,62,53,0,684,0,684l-99,113,2.73-675,.27-66"/><path class="cls-1" d="M176,201.17l-123,128H383s23-3,22,14,0,450,0,450l158-166v-409s3-16-13-17S176,201.17,176,201.17Z"/><path class="cls-1" d="M128,360.17H357s15-1,15,11v244l-135,113,1-231s-1-12-10-11-228,1-228,1l109-119S109,360.17,128,360.17Z"/><path class="cls-1" d="M686,.17s41,27,38,70,0,624,0,624l113-133v-334l67-2s84-11,91,96c0,0,8,6,12,0s0-201,0-201-6-4-10,0-1,16-1,16,11,80-90,65H836v-188l145-2s80,11,101,98c0,0,5,5,9,0V6.17s-3-6-17-6Z"/></g></g></svg>