<svg xmlns="http://www.w3.org/2000/svg" viewBox="0 0 495.8 96.5"><defs><style>.cls-1{fill:#fff;}</style></defs><title>Recurso 11</title><g id="Capa_2" data-name="Capa 2"><g id="Capa_1-2" data-name="Capa 1"><path class="cls-1" d="M162.48,63.24s11.23-7.37,3.21-21.43c0,0-4.44-7.37-14.92-7.84H123A2.4,2.4,0,0,0,120.36,36V93.45a2.28,2.28,0,0,0,2,2.15h31s15-.93,16.24-17.83C169.56,77.77,171,69.37,162.48,63.24ZM132.29,45h17.07c7.85.37,7.2,6.74,7.2,6.74.09,7.19-7.11,6.73-7.11,6.73H132.29Zm25.65,32c-.18,7.48-7.29,7.57-7.29,7.57H132.29V69.41h17.35C158.22,70.33,157.94,77,157.94,77Z"/><path class="cls-1" d="M185.21,36.12V93.68a2.34,2.34,0,0,0,2.16,1.93c1.85.1,38.8,0,38.8,0a2.42,2.42,0,0,0,2.42-2.22V86.79a2.38,2.38,0,0,0-2.31-2.18H197l0-14.67,26.75,0A2.38,2.38,0,0,0,226,67.91V61.07a2.41,2.41,0,0,0-2.15-2.1H197.05l.07-14,28.53,0a2.39,2.39,0,0,0,2.22-2.1l.07-6.74a2.45,2.45,0,0,0-2.18-2.21H187.48A2.51,2.51,0,0,0,185.21,36.12Z"/><path class="cls-1" d="M292.08,92.88,279.88,71s13.21-3.85,11.34-20.08c0,0,.33-15.6-19.2-17H246.44A2.44,2.44,0,0,0,244,36.29v57a2.24,2.24,0,0,0,2,2.37h7.71a2.31,2.31,0,0,0,2.13-2.29V72.68l11.74,0,12.11,21.55s.46,1.32,2.77,1.36h8.05A2,2,0,0,0,292.08,92.88ZM270,61.77H255.84V45h14c10.42.65,9.65,7.38,9.65,7.38C280.39,62.29,270,61.77,270,61.77Z"/><path class="cls-1" d="M347.22,55.74h8a2,2,0,0,0,2-2.35s-.46-20.31-26.56-20.31c0,0-20-.94-24.52,18.06,0,0-10.47,45,24.29,45.31,0,0,24.46,2.18,26.81-20.59,0,0,.25-1.61-2.08-2.08h-7.63a2.33,2.33,0,0,0-2.22,2s-.17,8.85-14.36,9.75c0,0-10.78,1.14-13.58-11,0,0-2.95-21.94,3.48-26.78,0,0,5.83-7.26,18.53-1.82,0,0,5,1.37,5.9,8.4C345.34,54.42,346.08,55.74,347.22,55.74Z"/><path class="cls-1" d="M425.36,92.66,403.38,36a3,3,0,0,0-3.23-2l-9.75,0a2.58,2.58,0,0,0-2.56,1.79l-21.94,57s-.56,2,1.91,2.76h6.84a2.84,2.84,0,0,0,3.16-2l3.83-9.9h27.67l4.13,10.13a3,3,0,0,0,2.6,1.84h7.21S425.94,95.21,425.36,92.66ZM385.88,72.54l9.76-24.86,9.69,24.86Z"/><path class="cls-1" d="M437.86,35.91V93.47a2.31,2.31,0,0,0,2.25,2.11h7.54a2.48,2.48,0,0,0,2.1-2.3V58.75l11.51,20s1.26,2.16,2.55,2l5.62.08a4.25,4.25,0,0,0,3-2.43l11.31-19.56.14,34.55a2.15,2.15,0,0,0,2,2.18h7.88a2.46,2.46,0,0,0,2-2.44c.2-2.24,0-57.23,0-57.23a2.18,2.18,0,0,0-2.18-2h-6.74s-1.67-.37-3.28,2.48l-16.68,29L450,36.33s-1-2.54-3.46-2.42h-6.33A2.39,2.39,0,0,0,437.86,35.91Z"/><path class="cls-1" d="M137,4.83a9,9,0,0,0-6.24-1.89,9.26,9.26,0,0,0-6.83,3.53c-2.92,3.61-2.2,9,.13,11.36a9.94,9.94,0,0,0,8.27,3.26,8.75,8.75,0,0,0,4.5-1.71V13.24h-5.76s-1.21-.79,0-1.48h6.49s.75-.07.72.82,0,7.16,0,7.16.12.15-.23.58c0,0-2.11,2.37-7.58,2.29s-9.31-5.37-9.62-7.76S119,7.14,126.38,2.65a10.81,10.81,0,0,1,11.56,1s.53.36.38.83-.37.61-.65.61A1.31,1.31,0,0,1,137,4.83Z"/><path class="cls-1" d="M159.47,20.8s-.52-.37-.55-2.68c0,0,.32-3.78-3.09-5,0,0,7.68-4.93,0-10.75a4.62,4.62,0,0,0-2.32-.59h-6a.71.71,0,0,0-.72.59l0,19.7s.67,1.25,1.42,0V13.62h5.1s3.65.75,4.17,3.44c0,0-.2,5.36,2,5.16,0,0,1,.2.87-.9A.67.67,0,0,0,159.47,20.8ZM148.2,12.17V3.24h5.31s4.17.08,4.25,4.23a4.56,4.56,0,0,1-3.89,4.7Z"/><path class="cls-1" d="M165.48,2.31V15.1s1.05,7.27,8.51,7.51c0,0,7.3-.33,8.35-7.55V2.31s-.81-1.29-1.45,0l0,12.55s-.4,5.77-6.94,6.25c0,0-5.65.33-6.94-6.09l-.08-12.71S166.29,1.18,165.48,2.31Z"/><path class="cls-1" d="M198.42,1.74H192s-.72,0-.78.63v19.5s.73,1.48,1.34,0V13.68l5.88-.1s4.93-.37,5.27-6.15A6.1,6.1,0,0,0,198.42,1.74ZM198,12.23h-5.37v-9h4.53s5-.07,5.12,4.21S198,12.23,198,12.23Z"/><path class="cls-1" d="M219.06,1.46a10.28,10.28,0,0,0-10,10.53,10,10,0,1,0,20,0A10.28,10.28,0,0,0,219.06,1.46Zm0,19.58a8.87,8.87,0,0,1-8.68-9,8.68,8.68,0,1,1,17.35,0A8.87,8.87,0,0,1,219.06,21Z"/><path class="cls-1" d="M52.53.36A47.28,47.28,0,0,0,46.7,0,46.75,46.75,0,0,0,0,46.7c0,1.18,0,2.37.13,3.55.07.89,6.15.47,6.09-.23-.09-1.11-.13-2.22-.13-3.32A40.67,40.67,0,0,1,51.52,6.37C52.05,6.43,53,.42,52.53.36Z"/><path class="cls-1" d="M87.31,46.7c0,1.36-.07,2.72-.2,4.06A40.63,40.63,0,0,1,49,87.25c-.77,0-.54,6.12.34,6.07A46.72,46.72,0,0,0,93.17,51.37c.15-1.54.23-3.11.23-4.67C93.4,44.81,87.31,45.05,87.31,46.7Z"/><path class="cls-1" d="M56.24,57C71.43,41.21,90.69,14.46,81.5,5.65A8.51,8.51,0,0,0,75,3.51l-1.12.05.27,6.08,1.11-.05a3,3,0,0,1,2.05.45c.9.86,1.28,5-3.72,14.25C68.91,33,61.19,43.08,51.85,52.82S32.7,70.69,24.25,75.71C15.17,81.09,11.06,80.88,10.16,80c-.47-.46-.64-1.65-.45-3.18l.13-1.11L3.8,75l-.14,1.1C3.22,79.73,4,82.53,6,84.41a8.27,8.27,0,0,0,6,2.14c4,0,9.18-1.88,15.46-5.61C36.27,75.65,46.53,67.16,56.24,57Z"/><path class="cls-1" d="M21.22,67.32C29.08,62.87,38.16,55.67,46.79,47S62.63,29.32,67.07,21.46C73.54,10,72,4.75,69.63,2.35s-6.31-2.75-11.54-1L57,1.75l2,5.76,1.06-.36C63.46,6,65,6.32,65.33,6.65c.52.52,1,3.8-3.55,11.82-4.19,7.39-11,16-19.29,24.26S25.62,57.84,18.22,62c-8,4.53-11.29,4.07-11.81,3.55s-.61-2.77,1.15-7l.43-1L2.37,55.22l-.43,1c-2.63,6.3-2.58,10.89.16,13.63A7.67,7.67,0,0,0,7.74,72C11.24,72,15.77,70.4,21.22,67.32Z"/><path class="cls-1" d="M90.89,17.87a7.84,7.84,0,0,0-5.39-2L85.4,22a2.1,2.1,0,0,1,1.35.36c1.36,1.26-.06,7-3.32,13.24-4.24,8.21-11.33,17.84-20,27.14C42.05,85.78,27,90.88,24.92,88.94a3.16,3.16,0,0,1-.47-2.22l-6.09-.26c-.12,3,.69,5.33,2.41,6.94a7.87,7.87,0,0,0,5.56,2c3.81,0,8.77-1.87,14.75-5.54,8.32-5.13,17.85-13.28,26.85-23s16.41-19.8,20.91-28.48C95.31,25.87,93.53,20.32,90.89,17.87Z"/></g></g></svg>