<svg xmlns="http://www.w3.org/2000/svg" viewBox="0 0 200.92 184.95"><defs><style>.cls-1{fill:#fff;}</style></defs><title>Recurso 2</title><g id="Capa_2" data-name="Capa 2"><g id="Capa_1-2" data-name="Capa 1"><path class="cls-1" d="M45.09,91.31C32,78,28.75,63,30.41,46.41,33.25,18.29,60.86.4,87.3,9.53c5.34,1.85,8.32,3.94,14.76,10.46,1.11-3,.53-5.91.41-8.69-.16-3.26,1.68-3.66,4-3.26s6.24-1.89,6.28,3.09c.06,8.29,0,16.57,0,24.86,0,2.32-.9,3.29-3.24,3.22-4.09-.13-7.4.88-9-5.61C98.44,24.83,90.2,20.68,81.68,18.51,67,14.78,51.89,21.65,45.76,35.64,39.15,50.72,39.31,66,49.83,79.33c13.28,16.9,41.62,15.65,54.5-2.15,2.64-3.66,4.25-3.16,7.39-1.13,3.51,2.26,2.48,4.31.72,6.87-8.58,12.47-21,17.75-35.57,18.71-2.9.19-5.83,0-9.34,0,4.81,8.08,6.44,16.11,4.45,24.77-1.9,8.27-6.82,13.77-14.67,16.83-1.26.48-3.9.33-1.89,3.06,5.35,7.25,8.74,15.58,12.75,23.56,1.78,3.53,3.84,5.56,8,4.78,3.52-.66,4.18,1.26,4,4.29-.15,2.71.33,4.74-3.86,5.16-9.46.95-15.78-1.65-19.16-11.26-2.46-7-6.48-13.41-9.69-20.13-2.08-4.36-5.23-6.61-10.21-6.27-3.14.21-6.32-.2-9.45.1-3.61.33-4.76-.72-4.83-4.57-.08-4.2,1.73-4.47,5-4.37,5.13.17,10.29.17,15.41-.17,12.81-.83,18.67-7.1,18.3-19.21-.33-10.43-7.84-17.25-19.6-17.41q-18.4-.25-36.81,0C1.6,100.9,0,100.25,0,96s1.76-4.85,5.32-4.76c6.6.16,6.6,0,6.6-6.67,0-20.39-.19-40.78.14-61.16.08-5.14-1.34-7-6.33-6.13C1.58,18-.26,16.69,0,12c.22-3.4,1.4-4.15,4.48-4.09,8.45.16,16.92.23,25.36,0,3.88-.12,4.73,1.39,4.75,4.93s-1,5-4.51,4.49c-.65-.1-1.34.08-2,0-4.29-.74-5.61.79-5.56,5.31.27,21.38.22,42.76,0,64.14,0,3.78,1,4.85,4.73,4.64C32.76,91.08,38.21,91.31,45.09,91.31Z"/><path class="cls-1" d="M196.86,91.44c-5.14,1-7-1.79-8.67-6.23-8.79-23.57-18-47-26.88-70.52-1.87-5-4.82-7.1-10.07-6.76a103.14,103.14,0,0,1-12.92,0c-3.51-.22-4.21,1.37-4,4.42.15,2.69-.44,5.62,3.86,5,4.08-.63,4.79.75,3.32,4.57Q128.52,55.47,116,89.2a9.53,9.53,0,0,1-5.59,5.69C77.47,110,78.3,156.8,101.74,175.25c18.11,14.27,45.19,12.62,60.66-3.85,15.83-16.86,16.64-48.61,1.7-65.49-8.85-10-19.95-15.14-33.25-15.22-4,0-4.41-1-2.85-4.46a147.53,147.53,0,0,0,5.19-14c.86-2.56,2.18-3.67,5-3.52,4.8.25,9.61.07,14.42.07,5.14,0,10.28.06,15.42,0,2.06,0,3.37.46,4.12,2.62q2.91,8.45,6.2,16.76c.92,2.3.8,3.45-2,3.26-1.16-.07-2.34.14-3.48,0-3.54-.5-4.18,1.37-4,4.36.19,2.62-.6,5.28,3.84,5.1,8.11-.34,16.25-.31,24.36,0,3.9.14,3.75-2,3.79-4.62C201,93.31,201,90.66,196.86,91.44Zm-41,22.37c9.55,13.08,9.84,34.38.33,47.23-7.86,10.64-18.56,15.46-31.7,13.18-13.32-2.31-21.71-10.72-25.86-23.37-1.39-4.23-2.26-8.66-2-11.81.1-12.08,3-21.67,10.84-29.31A31.94,31.94,0,0,1,155.88,113.81ZM140.05,60c-1.84,0-1.66-1.28-1.23-2.42,4.52-12,9.07-24,14-36.89,1.45,3.62,2.55,6.19,3.53,8.8C160,39.33,163.62,49.23,167.58,60,158,60,149,60,140.05,60Z"/><path class="cls-1" d="M17.19,3.66c-4.64,0-9.28,0-13.93,0C1.81,3.64,0,3.88.2,1.56.37-.45,2.08.06,3.27.05Q17.19,0,31.11.05c1.2,0,2.88-.49,3,1.53.19,2.36-1.62,2.06-3,2.07C26.47,3.69,21.83,3.67,17.19,3.66Z"/></g></g></svg>