<svg xmlns="http://www.w3.org/2000/svg" viewBox="0 0 270.65 339.13"><defs><style>.cls-1{fill:#fff;}</style></defs><title>Recurso 4</title><g id="Capa_2" data-name="Capa 2"><g id="Capa_1-2" data-name="Capa 1"><path class="cls-1" d="M172.45,77.33a16.53,16.53,0,0,0-2.5,8.72,9.51,9.51,0,0,0,6.58-4.47A28.06,28.06,0,0,0,179.65,74c-2.74-.56-5.61,1-7.2,3.32"/><path class="cls-1" d="M95.72,75.42c-.16,4.75,3.85,10.61,8.59,11.06.61-2.21-.93-5.54-2.5-7.83-2-2.92-6.09-3.23-6.09-3.23"/><path class="cls-1" d="M269.8,64.11c-1.76-3.52-5.48-5.72-8.22-8.38A92.08,92.08,0,0,1,253.17,46c-2.63-3.41-5.2-6.86-8-10.09a76.49,76.49,0,0,0-9.46-9A153.88,153.88,0,0,0,213.33,12.5c-7.81-4.32-15.8-9.23-24.6-11.25-7-1.61-15.81-1.78-21.88,2.71a15.68,15.68,0,0,0-3.61,3.75s0,.08-.06.11A29.58,29.58,0,0,0,157,6.23a101.63,101.63,0,0,0-11.71-.46c-4.05-.07-8.05-.61-12.08-1a43.25,43.25,0,0,0-20.41,2.9c-.86.36-1.72.75-2.56,1.16a20.18,20.18,0,0,0-9-7.24A25.2,25.2,0,0,0,89,.2,30.23,30.23,0,0,0,78.82,3.63,117,117,0,0,0,68,10.09c-3.19,2.09-6.33,4.27-9.56,6.3-3.71,2.33-7.34,4.67-10.82,7.34-7.86,6-15.11,12.81-22.46,19.44-3.73,3.36-7.49,6.69-11.39,9.86q-2.68,2.19-5.47,4.25a30,30,0,0,1-5.47,3.45C1.29,61.42.2,62.3,0,64.05a15.17,15.17,0,0,0,.59,4.87c.36,1.59.83,3.15,1.26,4.72.49,1.8.81,3.64,1.25,5.44a49.26,49.26,0,0,0,3.77,10.5,42.16,42.16,0,0,0,6.17,8.71c6.36,7.11,13.84,13.29,21.37,19.11,8,6.23,16.33,12.15,24.4,18.36,7.58,5.83,15.22,11.8,21.84,18.72,1.26,1.31,2.47,2.67,3.59,4.09.5.63,1.37.28,1.75-.22a51,51,0,0,0,8.66-18.57,133.45,133.45,0,0,0,2.81-17.91c.22-2,.45-4,.75-6,1.62,2.74,3.2,5.51,4.88,8.22a1.31,1.31,0,0,0,.27.3c-.24.84-.48,1.67-.73,2.5A50.55,50.55,0,0,0,101,132.5c-.46,2.73,1.3,4.74,3.28,6.39a20.28,20.28,0,0,1-1.92,8c-1.15,2.72-2.31,5.43-3.41,8.17a109.57,109.57,0,0,1-6,12.86,77.2,77.2,0,0,1-7.39,10.71,69.45,69.45,0,0,1-8.62,9.11c-1.92,1.65-3.9,3.22-6,4.66a21.29,21.29,0,0,1-5.09,2.91,1.13,1.13,0,0,0-.26,2c4.1,2,8.85,1.25,13-.2a36.15,36.15,0,0,0,10.73-6.22,82.17,82.17,0,0,0,9.34-8.74,85.42,85.42,0,0,0,8.56-11.64c2.61-4.14,5.08-8.37,7.77-12.46l.75,7.79c.64,6.69,1.28,13.37,2,20,.83,7.55,1.64,15.12,3.15,22.58l.36,1.75c-5.55,1.73-9.5,6.73-10.93,12.24-1.73,6.71-.24,14.14,2.38,20.43,2.21,5.31,5.75,10.33,11.28,12.5,5.37,2.1,11.32.6,16-2.51,5.55-3.72,9.06-9,11.37-14.94a31.23,31.23,0,0,0,20-6.71,38,38,0,0,0,11.29-15.34,49.75,49.75,0,0,0,3.79-19,65.37,65.37,0,0,0-.9-10.63,47.54,47.54,0,0,0,8.39,6.43A37.82,37.82,0,0,0,207.68,198a21.39,21.39,0,0,0,7.61-.1,1.13,1.13,0,0,0,.26-2,96.92,96.92,0,0,1-21.33-18.14,132.06,132.06,0,0,1-16.95-23.69,120.35,120.35,0,0,1-6.86-14.19.54.54,0,0,0-.07-.13,10.79,10.79,0,0,0,.69-4.95c-.18-2-.58-4-.88-6-.25-1.7-.47-3.41-.69-5.12,1-1.2,2-2.41,3-3.61.38,11.22,4.12,22.29,11.54,30.84a44.19,44.19,0,0,0,7.62,6.9,1.12,1.12,0,0,0,1.52-.4,77,77,0,0,1,15.22-19.79,74.77,74.77,0,0,1,9.69-7.7,121.42,121.42,0,0,1,12-6.82c7.83-4,15.85-8,22.25-14.21a34.55,34.55,0,0,0,7.12-9.51c1.91-3.88,2.75-8.09,3.71-12.27A47.08,47.08,0,0,1,265,80.66a32.26,32.26,0,0,1,2.9-5.44c2.11-3.41,3.86-7.2,1.9-11.11M184.09,2.73a37.31,37.31,0,0,1,8.13,1.84,25.93,25.93,0,0,0-13.89,11.94,24.37,24.37,0,0,0-4.65-3.85,47.27,47.27,0,0,0-6.77-3.34l-1.6-.67C169.52,2.8,177.44,2,184.09,2.73m-71.15,135a36.78,36.78,0,0,0-9.06-7.41c.05-.17.11-.34.17-.5a12.44,12.44,0,0,1,4.31,2.94c1.5,1.46,2.89,3,4.51,4.32,0,.22,0,.44.07.65m-9.81-4.56c0-.21.06-.42.1-.64a34.19,34.19,0,0,1,9.9,8.92,2,2,0,0,0,.24.26c.07.63.15,1.27.21,1.91a29,29,0,0,0-4.3-3.66c-1.27-.93-2.55-1.83-3.73-2.87s-2.62-2.23-2.42-3.92m11,22.2c-5.19,7.63-9.35,16-15.23,23.15a74.63,74.63,0,0,1-8.66,8.76A39.6,39.6,0,0,1,80.56,194c-3.37,1.49-7.6,2.91-11.39,2.21.71-.41,1.4-.85,2.07-1.3,1.94-1.29,3.79-2.71,5.59-4.18a66.1,66.1,0,0,0,9.1-9.07A87.1,87.1,0,0,0,94,170.5a98.29,98.29,0,0,0,6.27-12.94c1.3-3.14,2.58-6.29,3.91-9.42a26.19,26.19,0,0,0,2.23-7.58c2.7,2,5.66,3.88,7.26,6.95a1,1,0,0,0,.34.4q.36,3.48.71,7a1.13,1.13,0,0,0-.57.44m57.69,72.54a29.1,29.1,0,0,1-19.68,7.85,81.29,81.29,0,0,0,3.33-17.21c.23-2.17.43-4.33.61-6.5a20.48,20.48,0,0,0,12.26-10.33,19.8,19.8,0,0,0,.34-16.77,20.09,20.09,0,0,0-2.47-4.23c.67.22,1.31.5,1.9.7a4.36,4.36,0,0,0,3.83-.08c2.23-1.34,3-4.28,3.2-6.7.5-5.28-.46-10.82-1.45-16-.15-.83-.32-1.65-.49-2.47.68,1.56,1.37,3.12,2,4.69,1.53,3.62,3,7.27,4.24,11a80.45,80.45,0,0,1,4.64,22.73c.46,12-3.29,24.93-12.29,33.32m-10.18-87.54a34.44,34.44,0,0,0,5.64-4.65,22.55,22.55,0,0,1-5.68,5.21Zm.23-2.87c0-.57.08-1.13.13-1.69a.65.65,0,0,0,.18.21h0l.12.17c.07.1.13.2.19.3l.2.37c-.27.22-.55.42-.82.63m.36-4.48,0,0h0l0,0h0m-.84,10.64a24.8,24.8,0,0,0,7.33-6.15,9.16,9.16,0,0,1-1.56,3.64,20.73,20.73,0,0,1-6,5.27l.21-2.76m-2.22,28.83L160.31,158a29.9,29.9,0,0,0,2.06,3.07,25.21,25.21,0,0,0,4.27,4.18c-.08.17-.15.33-.24.5-1.1,2.18-2.52,4.16-3.68,6.31a18.06,18.06,0,0,0-1.39,3.15c-.3.94-.92,2.61-.2,3.43s1.57,1.31,2.25,2a17,17,0,0,1,2,2.62,18.79,18.79,0,0,1,2.43,6,17.12,17.12,0,0,1-1.87,12.19,18.34,18.34,0,0,1-9.62,8.09c.38-4.63.72-9.27,1.08-13.9l1.8-23.25m12.15-14.58c.5,2.47.89,5,1.2,7.45a53.45,53.45,0,0,1,.49,7.47c0,2.06-.21,4.5-1.66,6.11-1,1.13-2.2.49-3.43.06a9.43,9.43,0,0,0-4-.79c-.27-.26-.56-.5-.85-.74a16.51,16.51,0,0,1,2.54-5.93l.12-.19c-.11.24-.22.49-.34.72a1.12,1.12,0,1,0,1.93,1.13c.57-1.1,1-2.28,1.46-3.42.14-.34.28-.68.43-1l.21-.51,0-.06.09-.21c.14-.34.29-.69.45-1a9.76,9.76,0,0,1-2,6.08,1.16,1.16,0,0,0,0,1.58,1.12,1.12,0,0,0,1.58,0,12.21,12.21,0,0,0,2.64-8.76,1.15,1.15,0,0,0-1.11-1.11,1.18,1.18,0,0,0-1.07.77,1,1,0,0,0-.31-.27,1.08,1.08,0,0,0-.53-.12,34.6,34.6,0,0,0,2.17-7.21m10.8,8.18a124.85,124.85,0,0,0,19.5,22.25,93.25,93.25,0,0,0,10.11,7.81c-4.65.14-9.38-1.5-13.46-3.55a44.59,44.59,0,0,1-13.57-10.39,95.46,95.46,0,0,0-2.54-9.31c-1.42-4.35-3.09-8.62-4.87-12.84q-1.26-3-2.57-5.91a137.06,137.06,0,0,0,7.4,11.94m-8.9-14.76a3.53,3.53,0,0,0-2.18-1.41,1.27,1.27,0,0,0-1.13.33v0a.08.08,0,0,0,0,0,1,1,0,0,0-.23.77,31.38,31.38,0,0,1-2.11,12.13,23.56,23.56,0,0,1-3.52-3.54,35.87,35.87,0,0,1-3.41-5.66c.13-1.61.25-3.21.37-4.82,3-1.88,6.07-4.08,8-6.91q1.94,4.61,4.24,9.05m94.08-79.53c-.92,1.79-2.1,3.42-3.06,5.18A30.29,30.29,0,0,0,262,82.76c-1.18,4.08-1.76,8.32-3.14,12.35a29.38,29.38,0,0,1-6,10c-5.63,6.28-13.06,10.4-20.46,14.23-4.08,2.1-8.19,4.15-12.13,6.51A78.86,78.86,0,0,0,194.31,151c-.86,1.34-1.66,2.72-2.44,4.11a44.5,44.5,0,0,1-16.42-27.89,53.09,53.09,0,0,1-.75-9.84l5.52-6.55c3.39-4,6.33-8.16,8.08-13.16a44.48,44.48,0,0,0,2.3-14.61,29,29,0,0,0-.69-6.37c-1.09-5.06-2.41-10.07-3.3-15.17-1-5.75-1.68-11.84-.6-17.63a18.37,18.37,0,0,1,3.31-8A14.75,14.75,0,0,1,196.83,31a1.12,1.12,0,0,0-.59-2.15,17.3,17.3,0,0,0-7.55,4.41,18,18,0,0,0-4.08,7c-1.81,5.61-1.54,11.79-.8,17.56a168.66,168.66,0,0,0,3.32,16.66c.25,1,.49,2.08.7,3.12.09.41.17.81.25,1.22,0,.2.07.4.1.6l.07.5a38.88,38.88,0,0,1-.76,12.26,34.75,34.75,0,0,1-2.67,8.07,37.24,37.24,0,0,1-4.88,7.41c-3.56,4.34-7.21,8.61-10.83,12.89-.39-3.33-.73-6.66-1-10q-.54-6.89-.75-13.8a1.12,1.12,0,0,0-2.23,0q.36,11.64,1.65,23.21.65,5.63,1.5,11.23a1,1,0,0,0-.18.17,33.09,33.09,0,0,1-3.65,3.92,7.82,7.82,0,0,0-1.48-1.81c-.21-.17-.42-.34-.64-.5v0a.74.74,0,0,1,0-.14v-.2a.19.19,0,0,1,0-.07.91.91,0,0,0,0-.52q.25-3.25.5-6.52c.15-2,.31-3.92.46-5.88.11-1.43-2.12-1.42-2.23,0q-.49,6.35-1,12.69a.34.34,0,0,0,0,.1q-1.22,15.82-2.44,31.66c-1.14,14.8-2.25,29.61-3.46,44.41-.55,6.73-1,13.52-2.38,20.14-1.26,6-3.27,12.18-7.2,17-3.36,4.13-8.14,7.76-13.57,8.39s-10.35-2.34-13.4-6.79a30.88,30.88,0,0,1-3.67-7.58,37.29,37.29,0,0,1-2-10c-.27-5.84,1.57-12.15,6.55-15.67a12.75,12.75,0,0,1,3.3-1.65c1.51,7.51,2.77,15.26.42,22.68a2.75,2.75,0,0,1-2.57-2.16c-.32-1.4-2.47-.81-2.15.59a5,5,0,0,0,3.33,3.57,4.13,4.13,0,0,0,2.53.09c1-.34,1.15-1.82,1.38-2.69a35.94,35.94,0,0,0,.76-13.23c-.49-4.52-1.46-9-2.36-13.39s-1.5-8.62-2-13C119.26,180,118,165,116.5,150.05q-.68-6.74-1.43-13.48a1.3,1.3,0,0,0-.07-.65c-.57-5-1.16-10-1.8-15-.18-1.4-2.42-1.42-2.23,0q.81,6.44,1.54,12.86c-1-1-1.92-2-2.94-3a14.2,14.2,0,0,0-4.79-3.13c.54-1.79,1-3.58,1.5-5.39a107.42,107.42,0,0,0,2.29-11.37,75.72,75.72,0,0,0,.85-12.67,1.12,1.12,0,0,0-2.23,0,86.81,86.81,0,0,1-3,23.12c0,.06,0,.11,0,.17-2.31-3.83-4.49-7.73-6.89-11.49-1.83-2.85-3.88-5.53-5.79-8.32a36.14,36.14,0,0,1-4.44-8.11A25.48,25.48,0,0,1,85.71,83a39.3,39.3,0,0,1,2-9.77c.66-1.94,1.33-3.88,1.92-5.86A49.56,49.56,0,0,0,92,49.72,27.75,27.75,0,0,0,89.1,39.05a25.64,25.64,0,0,0-8.41-9.3c-1.19-.81-2.3,1.12-1.13,1.93A23.45,23.45,0,0,1,89.68,48.9a46,46,0,0,1-2.06,17.4c-.58,2-1.25,4-1.92,6a44.36,44.36,0,0,0-2.1,9.38,28.59,28.59,0,0,0,.78,11,32.3,32.3,0,0,0,4,8.54c2,3.09,4.28,6,6.31,9.07.61.91,1.19,1.85,1.77,2.78-1,5.18-1.34,10.47-2,15.7A72.66,72.66,0,0,1,90,147a45.46,45.46,0,0,1-5,9c-5.21-6.32-11.74-11.61-18.09-16.7C59.09,133,51,127,42.92,121a247.85,247.85,0,0,1-22.13-18.12C15.36,97.79,10.18,92.35,7.41,85.29A79.37,79.37,0,0,1,4.3,74.07c-.69-3-1.92-5.92-2.06-9a3.91,3.91,0,0,1,.11-1.37c.34-.66,1.44-.95,2.07-1.23A29.18,29.18,0,0,0,9.66,59c3.77-2.77,7.38-5.75,10.91-8.82,7.3-6.33,14.29-13,21.66-19.27,3.58-3,7.26-6,11.12-8.65,3.12-2.16,6.41-4.06,9.57-6.16,6.57-4.35,13.15-9.22,20.51-12.19C90.26,1.19,99,1.51,104.86,6.26a18.22,18.22,0,0,1,3.41,3.66A42.29,42.29,0,0,0,95.14,21.23c-.87,1.14,1.06,2.25,1.92,1.12A40.29,40.29,0,0,1,130.69,6.86c4,.19,7.94.84,11.93,1,3.7.2,7.41,0,11.11.24a31.43,31.43,0,0,1,10.37,2.4A65.59,65.59,0,0,1,171,13.7c4.75,2.6,8,6.62,10.84,11.11.77,1.21,2.7.09,1.93-1.12a52.59,52.59,0,0,0-3.9-5.4,23.78,23.78,0,0,1,15.5-12.37.62.62,0,0,0,.19-.07,143.22,143.22,0,0,1,13.08,6.64,195.31,195.31,0,0,1,21.95,13.33,83,83,0,0,1,9.87,8.37,98.25,98.25,0,0,1,8.24,9.63c2.56,3.31,5.06,6.68,7.82,9.83a61.89,61.89,0,0,0,4.35,4.52c1.42,1.31,3,2.48,4.36,3.81a9.53,9.53,0,0,1,3,4.34,7.52,7.52,0,0,1-.95,5.43"/><polygon class="cls-1" points="47.94 309.18 43.61 309.18 40 284.25 29.51 310.08 28.37 310.07 18.1 284.12 14.17 309.18 10.08 309.18 16.64 275.24 18.02 275.24 29.3 302.71 40.36 275.24 41.74 275.24 47.94 309.18"/><path class="cls-1" d="M88.12,309.18H83.49l-4.22-10.25H66.12l-4.24,10.25H57.61l14.5-33.94h1.07ZM78,295.93l-5.54-14.24L67.1,295.93Z"/><path class="cls-1" d="M130.89,309.17h-5.36l-12.4-16.86v16.86H109v-33l12.22.13A7.24,7.24,0,0,1,127,279a9.66,9.66,0,0,1,1.6,9.68,8.09,8.09,0,0,1-2.11,2.94,10.42,10.42,0,0,1-3.61,1.92h-4.37Zm-9.06-29a9.28,9.28,0,0,0-1.23-.38,5.35,5.35,0,0,0-1.18-.16h-6.29v11.06h7.36a4,4,0,0,0,3.32-1.49,5.68,5.68,0,0,0,1.18-3.64,6.72,6.72,0,0,0-.8-3.25,4.74,4.74,0,0,0-2.36-2.14"/><polygon class="cls-1" points="172.79 293.03 158.93 293.03 158.93 309.18 155.05 309.18 155.05 276.18 172.79 276.18 172.79 279.66 158.93 279.66 158.93 289.64 172.79 289.64 172.79 293.03"/><path class="cls-1" d="M213.55,267l-5.84,6.6h-2.9l3.79-6.6Zm-4.68,42.14H205v-33h3.88Z"/><polygon class="cls-1" points="259.12 309.18 242.84 309.18 242.84 276.18 246.95 276.18 246.95 305.61 259.12 305.61 259.12 309.18"/><rect class="cls-1" x="115.29" y="335.41" width="40.13" height="3.72"/></g></g></svg>