<svg xmlns="http://www.w3.org/2000/svg" viewBox="0 0 215.5 62.95"><defs><style>.cls-1{fill:#fff;}</style></defs><title>Recurso 1</title><g id="Capa_2" data-name="Capa 2"><g id="Capa_1-2" data-name="Capa 1"><path class="cls-1" d="M3871.33,551.73q0,7.9-4.56,12.47-4,4.15-12.29,4.15t-12.41-4.15q-4.5-4.56-4.5-12.47V536a24.62,24.62,0,0,0-.41-5.43,4,4,0,0,0-2.48-2.94v-.58h9.18v24.65c0,4,.95,6.88,2.86,8.74a10.74,10.74,0,0,0,7.85,2.8,10.63,10.63,0,0,0,7.78-2.8c1.91-1.86,2.86-4.78,2.86-8.74V527.08h6.12Z" transform="translate(-3786.22 -526.22)"/><path class="cls-1" d="M3922.57,567.43h-6.41V537.18l-12.35,18.13h-2.19l-12.35-18.13h0v30.25h-5.83V536a24.62,24.62,0,0,0-.41-5.43,3.91,3.91,0,0,0-2.42-2.94v-.58h8.83l13.94,20.46,13.8-20.46h5.39Z" transform="translate(-3786.22 -526.22)"/><path class="cls-1" d="M3968.32,551.73q0,7.9-4.56,12.47-4,4.15-12.29,4.15t-12.41-4.15q-4.5-4.56-4.5-12.47V536a23.85,23.85,0,0,0-.42-5.43,3.94,3.94,0,0,0-2.47-2.94v-.58h9.18v24.65c0,4,1,6.88,2.86,8.74a12.31,12.31,0,0,0,15.63,0c1.91-1.86,2.86-4.78,2.86-8.74V527.08h6.12Z" transform="translate(-3786.22 -526.22)"/><path class="cls-1" d="M4001.71,556.81a10.79,10.79,0,0,1-4.4,9.06,13.49,13.49,0,0,1-8.53,2.54,18.19,18.19,0,0,1-10.73-3.06V559a15.1,15.1,0,0,0,10.57,4.39,7.65,7.65,0,0,0,5.18-1.62,4.72,4.72,0,0,0,1.8-3.86v-.24a6.15,6.15,0,0,0-2.26-4.79,34.92,34.92,0,0,0-6.46-4.15,23.45,23.45,0,0,1-6.35-4.91,10.26,10.26,0,0,1-2.48-6.81,9.74,9.74,0,0,1,3.49-7.85,13.64,13.64,0,0,1,9.09-2.94,16.7,16.7,0,0,1,9.3,2.42v6a13.47,13.47,0,0,0-9.3-3.34c-4.31,0-6.48,1.61-6.52,4.85v.11a5.59,5.59,0,0,0,2.08,4.16,27.56,27.56,0,0,0,4.79,3.23,33.83,33.83,0,0,1,8,5.71,10.82,10.82,0,0,1,2.77,7.45" transform="translate(-3786.22 -526.22)"/><path class="cls-1" d="M3820.15,527.08v30.76l-25.91-30.76h-8v.58l.32.17a1.94,1.94,0,0,1,.47.25.39.39,0,0,1,.1.08,4.06,4.06,0,0,1,.54.49l.15.18,6.73,7.65,25.85,30.95h5.2V527.08Z" transform="translate(-3786.22 -526.22)"/><polyline class="cls-1" points="2.8 41.22 2.8 29.13 14.9 41.22"/><path class="cls-1" d="M3833.83,588.94h-1.52v-7.62a6.27,6.27,0,0,0-.1-1.31,1,1,0,0,0-.61-.7v-.15h2.23Z" transform="translate(-3786.22 -526.22)"/><path class="cls-1" d="M3848.08,588.94h-1.26l-6.26-7.51v7.51h-1.33v-7.62a6.27,6.27,0,0,0-.1-1.31,1,1,0,0,0-.59-.71v-.14h1.95l6.28,7.45v-7.45h1.31Z" transform="translate(-3786.22 -526.22)"/><path class="cls-1" d="M3862.9,588.94h-1.56V581.6l-3,4.4h-.53l-3-4.4h0v7.34h-1.41v-7.62a5.64,5.64,0,0,0-.1-1.31.94.94,0,0,0-.59-.71v-.14h2.14l3.38,5,3.35-5h1.31Z" transform="translate(-3786.22 -526.22)"/><path class="cls-1" d="M3878.19,584.05a4.91,4.91,0,0,1-1.43,3.57,5.3,5.3,0,0,1-4,1.55,5.19,5.19,0,0,1-3.88-1.54,5.14,5.14,0,0,1,0-7.17,5.24,5.24,0,0,1,3.89-1.53,5.31,5.31,0,0,1,3.92,1.53,4.91,4.91,0,0,1,1.44,3.59m-1.63,0a3.9,3.9,0,0,0-1.06-2.81,3.74,3.74,0,0,0-5.34,0,4.22,4.22,0,0,0,0,5.62,3.74,3.74,0,0,0,5.34,0,3.9,3.9,0,0,0,1.06-2.81" transform="translate(-3786.22 -526.22)"/><path class="cls-1" d="M3889.51,586.21a2.49,2.49,0,0,1-.83,1.82,3.62,3.62,0,0,1-2.57.91h-3.42v-7.62a6.47,6.47,0,0,0-.09-1.31,1,1,0,0,0-.59-.71v-.14h3.66a3.34,3.34,0,0,1,2.33.74,2.18,2.18,0,0,1,.75,1.7,1.94,1.94,0,0,1-1.54,2.06v0a2.41,2.41,0,0,1,2.3,2.52m-2.23-4.41a1.43,1.43,0,0,0-.42-1.06,1.83,1.83,0,0,0-1.38-.49h-1.26v3.1h1.26a1.83,1.83,0,0,0,1.38-.49,1.43,1.43,0,0,0,.42-1.06m.6,4.32a1.5,1.5,0,0,0-.52-1.2,2.31,2.31,0,0,0-1.62-.53h-1.52v3.46h1.52a2.31,2.31,0,0,0,1.62-.53,1.53,1.53,0,0,0,.52-1.2" transform="translate(-3786.22 -526.22)"/><path class="cls-1" d="M3895.69,588.94h-1.52v-7.62a5.64,5.64,0,0,0-.1-1.31,1,1,0,0,0-.6-.7v-.15h2.22Z" transform="translate(-3786.22 -526.22)"/><path class="cls-1" d="M3906.74,588.94h-5.65v-7.62a5.64,5.64,0,0,0-.1-1.31,1,1,0,0,0-.6-.71v-.14h2.22v8.62h4.13Z" transform="translate(-3786.22 -526.22)"/><path class="cls-1" d="M3912.51,588.94H3911v-7.62a5.64,5.64,0,0,0-.1-1.31,1,1,0,0,0-.6-.7v-.15h2.22Z" transform="translate(-3786.22 -526.22)"/><path class="cls-1" d="M3926.16,588.94h-1.56l-1.33-3h-4.13l-1.25,3h-1.34l4.17-9.78h1.1Zm-3.4-4.08-1.18-2.67a7.48,7.48,0,0,1-.45-1.17,8.58,8.58,0,0,1-.4,1.17l-1.09,2.67Z" transform="translate(-3786.22 -526.22)"/><path class="cls-1" d="M3937.72,588.94h-1.67l-1.28-2a7.88,7.88,0,0,0-1.48-1.87,1.76,1.76,0,0,0-1.14-.4h-.52v4.29h-1.52v-7.62a5.53,5.53,0,0,0-.1-1.31.94.94,0,0,0-.59-.71v-.14h3.4a3.5,3.5,0,0,1,2.35.73,2.49,2.49,0,0,1,.87,2,2.19,2.19,0,0,1-.5,1.43,2.57,2.57,0,0,1-1.29.86,4.36,4.36,0,0,1,1.18,1.12l1,1.64Zm-3.25-7.07v0c0-1.07-.66-1.61-1.95-1.61h-.89v3.34h.89a2,2,0,0,0,1.53-.54,1.53,1.53,0,0,0,.42-1.15" transform="translate(-3786.22 -526.22)"/><path class="cls-1" d="M3943.36,588.94h-1.52v-7.62a5.5,5.5,0,0,0-.11-1.31.94.94,0,0,0-.6-.7v-.15h2.23Z" transform="translate(-3786.22 -526.22)"/><path class="cls-1" d="M3957,588.94h-1.57l-1.32-3H3950l-1.26,3h-1.34l4.17-9.78h1.11Zm-3.4-4.08-1.19-2.67A6.33,6.33,0,0,1,3952,581c-.08.29-.21.68-.4,1.17l-1.1,2.67Z" transform="translate(-3786.22 -526.22)"/></g></g></svg>