<svg xmlns="http://www.w3.org/2000/svg" viewBox="0 0 165.17 40.63"><defs><style>.cls-1{fill:#fff;}</style></defs><title>Recurso 8</title><g id="Capa_2" data-name="Capa 2"><g id="Capa_1-2" data-name="Capa 1"><path class="cls-1" d="M12.74,0c6.19-.11,11,5,10.86,11.29.14,7-6,13.25-12.73,13.07A10.79,10.79,0,0,1,0,13.11C-.14,6,6-.1,12.74,0Zm-.21,2.57C7.23,2.5,2.63,7.36,2.77,13c0,5.07,3.46,8.86,8.23,8.86,5.3.1,9.9-4.82,9.8-10.43C20.8,6.4,17.34,2.61,12.53,2.61Z"/><path class="cls-1" d="M57.81.43h2.7l-3.6,21.08H67.78L67.33,24H53.8Z"/><path class="cls-1" d="M74.51.43h4.67V24H74.51Z"/><path class="cls-1" d="M98.34,0a11.27,11.27,0,0,1,10.07,5.86l-3.53,2.57a7.41,7.41,0,0,0-6.54-4C94.08,4.47,91,7.75,91,12.25S94.08,20,98.34,20a7.41,7.41,0,0,0,6.54-4l3.53,2.57A11.17,11.17,0,0,1,98.3,24.44,12,12,0,0,1,86.16,12.22,12.1,12.1,0,0,1,98.34,0Z"/><path class="cls-1" d="M114.79.43h4.67V14.61c0,3.43,2.07,5.36,5,5.36s5-1.93,5-5.36V.43h4.67V14.25c0,6.26-4.15,10.19-9.69,10.19s-9.68-3.93-9.68-10.19Z"/><path class="cls-1" d="M159.61,8.72a8.46,8.46,0,0,1,.74,3.5c0,4.54-3.15,7.75-7.34,7.75s-7.33-3.21-7.33-7.75,3.11-7.75,7.33-7.75a7.23,7.23,0,0,1,3.17.71l3.24-3.35A11.62,11.62,0,0,0,153,0a12.08,12.08,0,0,0-12.11,12.22,12.14,12.14,0,1,0,24.28,0,11.87,11.87,0,0,0-2.16-7Z"/><path class="cls-1" d="M43.78,11.36a5.92,5.92,0,0,0,3-5.32c0-3.39-2.38-5.61-6.12-5.61H33.47L31.8,10.25H30.11v2.53h1.26L29.45,24h9.66c4.74,0,8.06-2.93,8.06-7A6,6,0,0,0,43.78,11.36Zm-8-8.43h4.4c2.38,0,3.8,1.18,3.8,3.29,0,2.46-1.73,4-4.36,4H34.51ZM39,21.51h-6.4l1.49-8.72H40c2.74,0,4.4,1.57,4.4,4.14C44.37,19.68,42.26,21.51,39,21.51Z"/><path class="cls-1" d="M85.27,36.55h-4l-1,1.74h-1.1l5.08-8.72h.35l2.13,8.72h-1ZM84.1,31.48l-2.36,4.16H85Z"/><path class="cls-1" d="M93.36,32.86a2.8,2.8,0,0,0-.55,0,2,2,0,0,0-2,1.76l-.63,3.72h-1L90.26,32h.91l-.11.69a2.39,2.39,0,0,1,1.81-.76,2.1,2.1,0,0,1,.64.1Z"/><path class="cls-1" d="M101.77,32l-1.49,8.67h-1l.54-3.09A2.83,2.83,0,0,1,95,35.38a3.4,3.4,0,0,1,3.29-3.56A2.77,2.77,0,0,1,100.62,33L100.8,32Zm-2,1.34a1.92,1.92,0,0,0-1.42-.56A2.48,2.48,0,0,0,96,35.32a2.22,2.22,0,0,0,.57,1.58,1.94,1.94,0,0,0,1.46.61,2.62,2.62,0,0,0,2.31-2.82A1.92,1.92,0,0,0,99.74,33.3Z"/><path class="cls-1" d="M104.33,35.59l.61-3.63h1l-.65,3.76a3.26,3.26,0,0,0,0,.37,1.38,1.38,0,0,0,1.46,1.42A1.66,1.66,0,0,0,108.37,36l.68-4.07h1l-.69,4.1a2.9,2.9,0,0,1-.92,1.72,2.57,2.57,0,0,1-1.76.65,2.25,2.25,0,0,1-2.37-2.3A2.59,2.59,0,0,1,104.33,35.59Z"/><path class="cls-1" d="M113.23,32h1l-1.08,6.33h-1Zm.89-3.14a.73.73,0,1,1,0,1.46.71.71,0,0,1-.71-.73A.72.72,0,0,1,114.12,28.82Z"/><path class="cls-1" d="M117.94,36.22a1.59,1.59,0,0,0,0,.36c0,.71.5,1,1.37,1l.58,0-.15.86a4.25,4.25,0,0,1-.71.06c-1.19,0-2.06-.48-2.06-1.71a2.56,2.56,0,0,1,0-.51l.57-3.35h-1l.13-.9h1l.29-1.72h1l-.3,1.72h1.92l-.15.9h-1.92Z"/><path class="cls-1" d="M123.18,35.43a2,2,0,0,0,2.14,2.08,2.86,2.86,0,0,0,1.89-.77l.49.68a3.5,3.5,0,0,1-2.47,1,3,3,0,0,1-3-3.1,3.43,3.43,0,0,1,3.32-3.51,2.59,2.59,0,0,1,2.64,2.81,2.11,2.11,0,0,1-.15.8Zm4-.88a1.63,1.63,0,0,0-1.71-1.82,2.22,2.22,0,0,0-2.2,1.82Z"/><path class="cls-1" d="M133.93,31.82a2.84,2.84,0,0,1,2.56,1.5l-.74.5a2.11,2.11,0,0,0-1.85-1.08,2.45,2.45,0,0,0-2.39,2.54,2.1,2.1,0,0,0,2.09,2.24,2.34,2.34,0,0,0,1.86-.91l.63.6a2.89,2.89,0,0,1-2.53,1.22,3,3,0,0,1-3-3.1A3.45,3.45,0,0,1,133.93,31.82Z"/><path class="cls-1" d="M140.16,36.22a2.47,2.47,0,0,0,0,.36c0,.71.51,1,1.38,1l.57,0-.15.86a4.14,4.14,0,0,1-.7.06c-1.2,0-2.06-.48-2.06-1.71a2.56,2.56,0,0,1,.05-.51l.56-3.35h-1l.12-.9h1.05l.29-1.72h1l-.3,1.72h1.93l-.15.9h-1.93Z"/><path class="cls-1" d="M144.78,35.59l.6-3.63h1l-.64,3.76a2.89,2.89,0,0,0,0,.37,1.38,1.38,0,0,0,1.46,1.42A1.68,1.68,0,0,0,148.82,36L149.5,32h1l-.7,4.1a2.84,2.84,0,0,1-.91,1.72,2.6,2.6,0,0,1-1.77.65,2.24,2.24,0,0,1-2.36-2.3A2.59,2.59,0,0,1,144.78,35.59Z"/><path class="cls-1" d="M156.77,32.86a2.8,2.8,0,0,0-.55,0,2,2,0,0,0-2,1.76l-.63,3.72h-1L153.68,32h.9l-.11.69a2.39,2.39,0,0,1,1.81-.76,2.1,2.1,0,0,1,.64.1Z"/><path class="cls-1" d="M165.17,32l-1.09,6.33h-.9l.15-.84a2.85,2.85,0,0,1-2.21,1,2.81,2.81,0,0,1-2.76-3,3.44,3.44,0,0,1,3.32-3.61A2.69,2.69,0,0,1,164,33L164.2,32Zm-3.43.78a2.53,2.53,0,0,0-2.39,2.63,2.14,2.14,0,0,0,.57,1.54,1.89,1.89,0,0,0,1.46.6,2.54,2.54,0,0,0,2.31-2.75A1.88,1.88,0,0,0,161.74,32.74Z"/><path class="cls-1" d="M78.26,29.13h.88l-5.09,9.05h-.88Z"/></g></g></svg>