<svg xmlns="http://www.w3.org/2000/svg" viewBox="0 0 269.27 39.85"><defs><style>.cls-1{fill:#fff;}</style></defs><title>Recurso 1</title><g id="Capa_2" data-name="Capa 2"><g id="DISEÑO"><path class="cls-1" d="M37,8.65C35.14,7.52,31.92,7,27.43,7H18a39.41,39.41,0,0,0-7.38.74A8.68,8.68,0,0,0,7.75,9.05a2.67,2.67,0,0,0-.89,2.12,4.08,4.08,0,0,0,.94,2.67,4.68,4.68,0,0,0,2.7,2,35.24,35.24,0,0,0,8,.64H21l4.31.05h2.17A55.32,55.32,0,0,1,38.64,17.8l.28.1h0a10,10,0,0,1,4.68,3.46,11.37,11.37,0,0,1,2.08,7.12,10.76,10.76,0,0,1-1.85,6.32,9.74,9.74,0,0,1-4.35,3.47h0l-.1,0A31.63,31.63,0,0,1,30,39.55H15.46a26.69,26.69,0,0,1-4.63-.39c-3.45-.6-6-1.73-7.57-3.37-.38-.39-.71-.74-.94-1L.24,32.58l4.82-4.5L7.14,30c.47.39.85.69,1,.89a10.41,10.41,0,0,0,4.45,1.58,15.35,15.35,0,0,0,2.83.25H30a19.8,19.8,0,0,0,6.43-.89,3.91,3.91,0,0,0,1.75-1.34,4.79,4.79,0,0,0,.76-2.76c0-1.54-1.18-2.72-3.6-3.56a19.58,19.58,0,0,0-5.39-.84l-7-.05H15.7l-.8-.1-.52-.05a31.71,31.71,0,0,1-8.61-1.88l0-.05h0a10.2,10.2,0,0,1-3.92-3.46A11.35,11.35,0,0,1,0,11.12,10,10,0,0,1,6.48,1.53l.33-.1A53.28,53.28,0,0,1,17.88.15h9.55q11.34,0,14.75,3.56c.29.34.52.59.71.79L45.4,7.22l-5.82,3.56L37.69,9.15A4.59,4.59,0,0,0,37,8.65Z"/><path class="cls-1" d="M115.25,34.76a10.72,10.72,0,0,1-4.17,3.46,22.42,22.42,0,0,1-8.18,1.43h-26V0h25.63c4.82,0,8.42,1.09,10.83,3.16a11.72,11.72,0,0,1,3.6,8.41V28.62A10.6,10.6,0,0,1,115.25,34.76Zm-5.07-24.13a4.39,4.39,0,0,0-1.56-2.42c-1.27-.89-3.31-1.39-6.05-1.39h-19v26H102.9a13.84,13.84,0,0,0,4.92-.79,3.89,3.89,0,0,0,1.94-1.39,4.18,4.18,0,0,0,.61-2.42V11.92A3.2,3.2,0,0,0,110.18,10.63Z"/><path class="cls-1" d="M135.86,16.41h33.2v6.83h-33.2v9.49h33.2v6.82H129.24V.1h39.82V6.92h-33.2Z"/><path class="cls-1" d="M220.61,39.55h-6.67V28.18c0-1.14-1.14-2.42-3.36-3.71a8.36,8.36,0,0,0-3.73-.84H187.93V39.55h-6.62V.15h25.87a20.41,20.41,0,0,1,7.42,1.53,11.2,11.2,0,0,1,4.49,3.41,10.36,10.36,0,0,1,2.08,6.43,10.32,10.32,0,0,1-2.08,6.38,10,10,0,0,1-2,2,16.44,16.44,0,0,1,1.56,1.69,9.78,9.78,0,0,1,2,6.13Zm-9.32-32a13.17,13.17,0,0,0-4.44-1H187.93v9.93h18.92a12.75,12.75,0,0,0,4.35-1c2.22-1.09,3.35-2.43,3.35-4S213.47,8.5,211.29,7.52Z"/><path class="cls-1" d="M225.81,39.7,247.52.15,269.27,39.7l-7.33.15-4.26-7.47H237.49l-4.4,7.47Zm14.75-14.14h13.91l-6.95-12.85Z"/><rect class="cls-1" x="58.09" y="0.15" width="7.41" height="39.5"/></g></g></svg>